<svg width="16" height="16" viewBox="0 0 16 16" fill="none" xmlns="http://www.w3.org/2000/svg">
<path fill-rule="evenodd" clip-rule="evenodd" d="M8.00001 1.33325C5.42001 1.33325 3.33334 3.41992 3.33334 5.99992C3.33334 9.49992 8.00001 14.6666 8.00001 14.6666C8.00001 14.6666 12.6667 9.49992 12.6667 5.99992C12.6667 3.41992 10.58 1.33325 8.00001 1.33325ZM4.66668 5.99992C4.66668 4.15992 6.16001 2.66659 8.00001 2.66659C9.84001 2.66659 11.3333 4.15992 11.3333 5.99992C11.3333 7.91992 9.41334 10.7933 8.00001 12.5866C6.61334 10.8066 4.66668 7.89992 4.66668 5.99992ZM6.33334 5.99992C6.33334 5.07944 7.07954 4.33325 8.00001 4.33325C8.59545 4.33325 9.14566 4.65092 9.44339 5.16659C9.74111 5.68225 9.74111 6.31758 9.44339 6.83325C9.14566 7.34892 8.59545 7.66658 8.00001 7.66658C7.07954 7.66658 6.33334 6.92039 6.33334 5.99992Z" fill="#C40B0B"/>
</svg>
