<svg width="16" height="16" viewBox="0 0 16 16" fill="none" xmlns="http://www.w3.org/2000/svg">
<path fill-rule="evenodd" clip-rule="evenodd" d="M6.66768 1H9.33435C9.70101 1 10.001 1.3 10.001 1.66667C10.001 2.03333 9.70101 2.33333 9.33435 2.33333H6.66768C6.30102 2.33333 6.00102 2.03333 6.00102 1.66667C6.00102 1.3 6.30102 1 6.66768 1ZM8.66768 9C8.66768 9.36667 8.36768 9.66667 8.00102 9.66667C7.63435 9.66667 7.33435 9.36667 7.33435 9V6.33333C7.33435 5.96667 7.63435 5.66667 8.00102 5.66667C8.36768 5.66667 8.66768 5.96667 8.66768 6.33333V9ZM12.6876 5.26L13.1876 4.76C13.441 4.50667 13.4476 4.08667 13.1876 3.82667L13.181 3.82C12.921 3.56 12.5076 3.56667 12.2476 3.82L11.7476 4.32C10.7143 3.49333 9.41432 3 8.00098 3C4.80098 3 2.08098 5.64 2.00098 8.84C1.91432 12.2267 4.62765 15 8.00098 15C11.321 15 14.001 12.3133 14.001 9C14.001 7.58667 13.5076 6.28667 12.6876 5.26ZM3.33435 9C3.33435 11.58 5.42102 13.6667 8.00102 13.6667C10.581 13.6667 12.6677 11.58 12.6677 9C12.6677 6.42 10.581 4.33333 8.00102 4.33333C5.42102 4.33333 3.33435 6.42 3.33435 9Z" fill="#C40B0B"/>
</svg>
