<svg width="63" height="63" viewBox="0 0 63 63" fill="none" xmlns="http://www.w3.org/2000/svg">
<g clip-path="url(#clip0_27_12)">
<path d="M38.6131 21.3387H37.915C36.0982 22.6149 33.8891 23.3709 31.5002 23.3709C29.1113 23.3709 26.9022 22.6149 25.0854 21.3387H24.3873L19.3066 32.5161H21.3389C21.8998 32.5161 22.355 32.9713 22.355 33.5322V45.7258C22.355 48.5273 24.6342 50.8064 27.4357 50.8064H35.5647C38.3662 50.8064 40.6453 48.5273 40.6453 45.7258V33.5322C40.6453 32.9713 41.1006 32.5161 41.6615 32.5161H43.6937L38.6131 21.3387Z" fill="#C40B0B"/>
<path d="M31.5001 18.2903C32.9135 18.2903 34.2904 17.7965 35.3787 16.8982L34.0851 15.3303C33.3596 15.9288 32.442 16.258 31.5001 16.258C29.2585 16.258 27.4356 14.4351 27.4356 12.1935C27.4356 9.95194 29.2585 8.129 31.5001 8.129C33.7417 8.129 35.5646 9.95194 35.5646 12.1935C35.5646 12.8957 35.3827 13.5877 35.0383 14.1953L36.8063 15.1972C37.3235 14.2847 37.5969 13.2462 37.5969 12.1935C37.5969 8.83115 34.8625 6.09674 31.5001 6.09674C28.1377 6.09674 25.4033 8.83115 25.4033 12.1935C25.4033 15.5559 28.1377 18.2903 31.5001 18.2903Z" fill="#02133C"/>
<path d="M11.1773 20.3226C8.37586 20.3226 6.09668 22.6017 6.09668 25.4032C6.09668 28.2047 8.37586 30.4839 11.1773 30.4839C13.9788 30.4839 16.258 28.2047 16.258 25.4032C16.258 22.6017 13.9788 20.3226 11.1773 20.3226ZM14.0387 24.3871H12.1935V22.5418C13.0541 22.8487 13.7319 23.5264 14.0387 24.3871ZM10.1612 22.5418V24.3871H8.31591C8.62278 23.5264 9.30054 22.8487 10.1612 22.5418ZM8.31591 26.4193H10.1612V28.2646C9.30054 27.9578 8.62278 27.28 8.31591 26.4193ZM12.1935 28.2646V26.4193H14.0387C13.7319 27.28 13.0541 27.9578 12.1935 28.2646Z" fill="#02133C"/>
<path d="M51.8226 20.3226C49.0212 20.3226 46.742 22.6017 46.742 25.4032C46.742 28.2047 49.0212 30.4839 51.8226 30.4839C54.6241 30.4839 56.9033 28.2047 56.9033 25.4032C56.9033 22.6017 54.6241 20.3226 51.8226 20.3226ZM54.6841 24.3871H52.8388V22.5418C53.6994 22.8487 54.3772 23.5264 54.6841 24.3871ZM50.8065 22.5418V24.3871H48.9612C49.2681 23.5264 49.9459 22.8487 50.8065 22.5418ZM48.9612 26.4193H50.8065V28.2646C49.9459 27.9578 49.2681 27.28 48.9612 26.4193ZM52.8388 28.2646V26.4193H54.6841C54.3772 27.28 53.6994 27.9578 52.8388 28.2646Z" fill="#02133C"/>
<path d="M31.5 31.5C28.6985 31.5 26.4193 33.7792 26.4193 36.5806C26.4193 39.3821 28.6985 41.6613 31.5 41.6613C34.3015 41.6613 36.5806 39.3821 36.5806 36.5806C36.5806 33.7792 34.3015 31.5 31.5 31.5ZM31.5 39.629C29.8193 39.629 28.4516 38.2613 28.4516 36.5806C28.4516 34.9 29.8193 33.5323 31.5 33.5323C33.1807 33.5323 34.5484 34.9 34.5484 36.5806C34.5484 38.2613 33.1807 39.629 31.5 39.629Z" fill="#02133C"/>
<path d="M63 33.5323C63 19.2201 53.3823 6.74506 39.5843 3.09005C37.4301 1.17465 34.6033 0 31.5 0C28.3967 0 25.5699 1.17465 23.4157 3.09005C9.61766 6.74506 0 19.2201 0 33.5323V34.5484H2.05766C2.59621 50.3268 15.5925 63 31.5 63C47.4075 63 60.4038 50.3268 60.9423 34.5484H63V33.5323ZM31.5 2.03226C37.1029 2.03226 41.6613 6.59061 41.6613 12.1935C41.6613 17.7965 37.1029 22.3548 31.5 22.3548C25.8971 22.3548 21.3387 17.7965 21.3387 12.1935C21.3387 6.59061 25.8971 2.03226 31.5 2.03226ZM21.0095 6.00837C19.9344 7.82419 19.3065 9.93469 19.3065 12.1935C19.3065 15.6098 20.7229 18.6978 22.994 20.914L17.64 32.5161H2.04953C2.45598 20.5868 10.0058 10.1897 21.0095 6.00837ZM31.5 60.9677C16.7133 60.9677 4.62745 49.2071 4.08992 34.5484H18.9406L24.6167 22.2492C26.5769 23.5955 28.9475 24.3871 31.5 24.3871C34.0525 24.3871 36.4231 23.5955 38.3833 22.2492L44.0594 34.5484H54.871V32.5161H45.36L40.006 20.914C42.2771 18.6978 43.6935 15.6098 43.6935 12.1935C43.6935 9.93469 43.0656 7.82419 41.9905 6.00837C52.9942 10.1897 60.544 20.5868 60.9505 32.5161H56.9032V34.5484H58.9101C58.3725 49.2071 46.2867 60.9677 31.5 60.9677Z" fill="#02133C"/>
</g>
<defs>
<clipPath id="clip0_27_12">
<rect width="63" height="63" fill="white"/>
</clipPath>
</defs>
</svg>
