<svg width="63" height="63" viewBox="0 0 63 63" fill="none" xmlns="http://www.w3.org/2000/svg">
<g clip-path="url(#clip0_27_22)">
<path d="M53.7014 28.3685L51.4019 21.2924L38.2528 25.5649C36.756 26.0513 35.2203 24.9357 35.2203 23.3616V9.53561H27.7798V23.3616C27.7798 24.9357 26.2441 26.0513 24.7474 25.5649L11.5982 21.2924L9.29877 28.3685L22.4484 32.641C23.9452 33.1274 24.5316 34.9328 23.6063 36.206L15.4795 47.3917L21.4992 51.7647L29.626 40.579C30.5508 39.3057 32.4494 39.3057 33.3741 40.579L41.501 51.7647L47.5202 47.3917L39.3933 36.206C38.4686 34.9328 39.055 33.1274 40.5517 32.641L53.7014 28.3685Z" fill="#C40B0B"/>
<path d="M34.9732 31.5C34.9732 33.4183 33.4183 34.9732 31.5 34.9732C29.5817 34.9732 28.0268 33.4183 28.0268 31.5C28.0268 29.5817 29.5817 28.0268 31.5 28.0268C33.4183 28.0268 34.9732 29.5817 34.9732 31.5Z" fill="#02133C"/>
<path d="M59.6152 17.2809C57.4739 13.0545 54.3439 9.29917 50.5636 6.42151C50.1584 6.11293 49.5792 6.19128 49.2707 6.59695C48.9616 7.00214 49.0399 7.58132 49.4456 7.8899C53.0053 10.5998 55.9527 14.1355 57.969 18.1148C60.0824 22.2859 61.1543 26.7896 61.1543 31.5C61.1543 39.4211 58.07 46.8679 52.4689 52.4689C46.8679 58.07 39.4211 61.1543 31.5 61.1543C23.5789 61.1543 16.1321 58.07 10.5311 52.4689C4.93005 46.8679 1.8457 39.4211 1.8457 31.5C1.8457 23.5789 4.93005 16.1321 10.5311 10.5311C16.1321 4.93005 23.5789 1.8457 31.5 1.8457C36.8006 1.8457 42.0022 3.26074 46.5415 5.93797C46.9808 6.19704 47.5461 6.05093 47.8052 5.61209C48.0642 5.17278 47.9181 4.60705 47.4793 4.34846C42.6559 1.50348 37.1304 0 31.5 0C23.0862 0 15.1756 3.2766 9.22611 9.22611C3.2766 15.1756 0 23.0862 0 31.5C0 39.9138 3.2766 47.8244 9.22611 53.7739C15.1756 59.7234 23.0862 63 31.5 63C39.9138 63 47.8244 59.7234 53.7739 53.7739C59.7234 47.8244 63 39.9138 63 31.5C63 26.4969 61.8613 21.713 59.6152 17.2809Z" fill="#02133C"/>
<path d="M31.5002 11.2256C20.3207 11.2256 11.2258 20.3205 11.2258 31.5C11.2258 42.6795 20.3207 51.7744 31.5002 51.7744C42.6796 51.7744 51.7745 42.6795 51.7745 31.5C51.7745 20.3205 42.6796 11.2256 31.5002 11.2256ZM44.7743 18.7305L41.0257 23.6938L37.9673 24.6873C37.5386 24.8266 37.0829 24.7545 36.7176 24.4892C36.3528 24.2239 36.1433 23.813 36.1433 23.3616V20.8752L40.3321 15.3295C41.9822 16.2345 43.4794 17.3847 44.7743 18.7305V18.7305ZM46.0125 20.1542C46.4047 20.6546 46.771 21.1766 47.1103 21.7168L44.0908 22.6978L46.0125 20.1542ZM36.1433 13.664C37.0003 13.8875 37.8337 14.1711 38.6378 14.5099L36.1433 17.813V13.664ZM34.2975 13.2833V23.3616C34.2975 24.4109 34.7845 25.3659 35.6328 25.9826C36.1976 26.3931 36.9383 26.804 38.5379 26.4426L48.0298 23.3587C48.8478 25.0127 49.4261 26.806 49.7154 28.6935L40.2668 31.7634C39.2694 32.0879 38.5114 32.8458 38.187 33.8432C37.863 34.841 38.0308 35.8999 38.6475 36.7483L44.3917 44.655C42.013 46.9871 39.0075 48.6814 35.6535 49.4567L35.7289 45.3899L36.5076 46.4617C36.807 46.8741 37.3843 46.9655 37.7967 46.666C38.2091 46.3661 38.3004 45.7893 38.0005 45.3769L34.1212 40.0369C33.5045 39.188 32.5494 38.7016 31.5006 38.7016C30.4514 38.7016 29.4963 39.188 28.8796 40.0369L23.1488 47.9248C21.4709 47.0683 19.9419 45.9619 18.6091 44.655L24.3538 36.7483C24.97 35.8999 25.1378 34.841 24.8138 33.8432C24.4894 32.8454 23.7314 32.0874 22.734 31.7634L13.2854 28.6935C13.5747 26.806 14.1529 25.0127 14.971 23.3587L23.1882 26.0288C23.8179 26.1778 24.2245 25.8259 24.3509 25.4361C24.5086 24.9516 24.2433 24.4306 23.7588 24.2734L22.2716 23.7904L18.525 18.4268C19.8501 17.1112 21.3733 15.9956 23.0455 15.1285L26.8571 20.5849V23.3616C26.8571 23.7793 26.6821 24.1571 26.3639 24.4258C25.9746 24.7541 25.9251 25.3366 26.2538 25.7259C26.4365 25.9422 27.1041 26.2321 27.5545 25.836C28.2716 25.2054 28.7028 24.3186 28.7028 23.3616V13.2833C29.615 13.1439 30.5494 13.0713 31.5002 13.0713C32.4509 13.0713 33.3853 13.1439 34.2975 13.2833V13.2833ZM49.8351 33.3621L45.7092 31.936L49.9053 30.5724C49.9207 30.88 49.8971 32.7492 49.8351 33.3621ZM44.1884 41.2351L46.5907 42.0652C46.299 42.48 45.9913 42.8828 45.6679 43.2717L44.1884 41.2351ZM42.2942 38.6281L40.1404 35.6634C39.875 35.2986 39.8029 34.8429 39.9423 34.4137C40.0817 33.9845 40.4081 33.6581 40.8368 33.5188L42.7964 32.8824L49.552 35.2169C49.1684 37.0828 48.5008 38.8458 47.5982 40.4608L42.2942 38.6281ZM26.4192 46.5627L26.3702 49.2015C25.8611 49.0534 25.3608 48.8842 24.8705 48.6944L26.4192 46.5627ZM13.095 30.5724L16.288 31.6101L13.1042 32.5796C13.083 32.222 13.0796 30.8795 13.095 30.5724ZM19.3531 32.606L22.163 33.5188C22.5922 33.6581 22.9186 33.9845 23.058 34.4137C23.1974 34.8429 23.1253 35.2986 22.86 35.6634L21.2527 37.8759L15.0345 39.7691C14.2029 38.121 13.6122 36.331 13.308 34.4469L19.3531 32.606ZM19.4526 40.3531L17.3325 43.2717C16.8417 42.6819 16.3865 42.0619 15.9712 41.4135L19.4526 40.3531ZM19.3594 22.844L15.89 21.7164C16.3043 21.0574 16.759 20.4258 17.2512 19.8264L19.3594 22.844ZM26.8571 17.3616L24.7532 14.3504C25.4358 14.0807 26.138 13.8514 26.8571 13.6645V17.3616ZM28.2082 49.6336L28.3139 43.9556L30.3725 41.1217C30.6379 40.7569 31.0488 40.5473 31.5002 40.5473C31.9515 40.5473 32.3624 40.7569 32.6278 41.1217L33.9289 42.9126L33.801 49.7854C33.0469 49.8797 32.2793 49.9287 31.5002 49.9287C30.3769 49.9287 29.2767 49.8273 28.2082 49.6336V49.6336Z" fill="#02133C"/>
<path d="M27.104 31.5C27.104 33.9239 29.0761 35.896 31.5 35.896C33.9239 35.896 35.896 33.9239 35.896 31.5C35.896 29.0761 33.9239 27.104 31.5 27.104C29.0761 27.104 27.104 29.0761 27.104 31.5ZM34.0503 31.5C34.0503 32.9064 32.9064 34.0503 31.5 34.0503C30.0936 34.0503 28.9497 32.9064 28.9497 31.5C28.9497 30.0936 30.0936 28.9497 31.5 28.9497C32.9064 28.9497 34.0503 30.0936 34.0503 31.5Z" fill="black"/>
</g>
<defs>
<clipPath id="clip0_27_22">
<rect width="63" height="63" fill="white"/>
</clipPath>
</defs>
</svg>
