<svg width="63" height="63" viewBox="0 0 63 63" fill="none" xmlns="http://www.w3.org/2000/svg">
<g clip-path="url(#clip0_27_30)">
<path d="M62.3027 13.5031C62.8936 14.227 63.1226 15.1674 62.9353 16.0817L58.6074 37.0826C58.3136 38.515 57.0389 39.5529 55.5787 39.5529H17.3234L18.2345 43.9721H55.2912C56.1466 43.9721 56.838 44.6651 56.838 45.5189C56.838 46.3727 56.1466 47.0657 55.2912 47.0657H18.2345C16.7728 47.0657 15.4998 46.0278 15.2043 44.5971L7.71939 8.26562L0.930405 5.31742C0.146227 4.97867 -0.212701 4.06763 0.127647 3.28333C0.467995 2.49903 1.37903 2.14022 2.16173 2.48057L8.9522 5.42717C9.87407 5.82781 10.5469 6.6553 10.7495 7.64066L11.7225 12.3646H59.9053C60.838 12.3647 61.7135 12.7792 62.3027 13.5031ZM55.5788 36.4591L59.9053 15.4582H12.3597L16.6862 36.4591H55.5788Z" fill="#02133C"/>
<path d="M59.9057 15.4582L55.5792 36.4591H16.6866L12.3601 15.4582H59.9057V15.4582ZM48.7611 21.9423C48.7611 21.0884 48.0697 20.3954 47.2142 20.3954H25.0486C24.1932 20.3954 23.5018 21.0884 23.5018 21.9423C23.5018 22.7961 24.1932 23.4891 25.0486 23.4891H47.2142C48.0697 23.4891 48.7611 22.7961 48.7611 21.9423ZM47.5546 29.9749C47.5546 29.1211 46.8632 28.4281 46.0078 28.4281H26.2552C25.3998 28.4281 24.7084 29.1211 24.7084 29.9749C24.7084 30.8287 25.3998 31.5217 26.2552 31.5217H46.0078C46.8631 31.5216 47.5546 30.8287 47.5546 29.9749Z" fill="#C40B0B"/>
<path d="M45.8505 49.5665C48.907 49.5665 51.3912 52.0522 51.3912 55.1072C51.3912 58.1621 48.907 60.6479 45.8505 60.6479C42.7956 60.6479 40.3098 58.1622 40.3098 55.1072C40.3098 52.0523 42.7955 49.5665 45.8505 49.5665Z" fill="#02133C"/>
<path d="M47.2147 20.3956C48.0701 20.3956 48.7615 21.0886 48.7615 21.9425C48.7615 22.7963 48.0701 23.4893 47.2147 23.4893H25.049C24.1936 23.4893 23.5022 22.7963 23.5022 21.9425C23.5022 21.0886 24.1936 20.3956 25.049 20.3956H47.2147Z" fill="#02133C"/>
<path d="M46.0078 28.4281C46.8632 28.4281 47.5546 29.1211 47.5546 29.9749C47.5546 30.8287 46.8632 31.5217 46.0078 31.5217H26.2552C25.3998 31.5217 24.7084 30.8287 24.7084 29.9749C24.7084 29.1211 25.3998 28.4281 26.2552 28.4281H46.0078V28.4281Z" fill="#02133C"/>
<path d="M26.4163 49.5665C29.4712 49.5665 31.957 52.0522 31.957 55.1072C31.957 58.1621 29.4713 60.6479 26.4163 60.6479C23.3613 60.6479 20.8756 58.1622 20.8756 55.1072C20.8756 52.0523 23.3614 49.5665 26.4163 49.5665Z" fill="#02133C"/>
</g>
<defs>
<clipPath id="clip0_27_30">
<rect width="63" height="63" fill="white"/>
</clipPath>
</defs>
</svg>
