<svg width="76" height="76" viewBox="0 0 76 76" fill="none" xmlns="http://www.w3.org/2000/svg">
<path d="M56.3871 9.80645H30.6452V7.35484H31.871C32.5491 7.35484 33.0968 6.80538 33.0968 6.12903V1.22581C33.0968 0.549458 32.5491 0 31.871 0H14.7097C14.0315 0 13.4839 0.549458 13.4839 1.22581V6.12903C13.4839 6.80538 14.0315 7.35484 14.7097 7.35484H15.9355V10.6462C13.0416 12.0264 11.0323 14.973 11.0323 18.3871V67.4194C11.0323 72.1496 14.8827 76 19.6129 76H56.3871C61.1173 76 64.9677 72.1496 64.9677 67.4194V18.3871C64.9677 13.6557 61.1173 9.80645 56.3871 9.80645ZM62.5161 18.3871V37.4924L57.6129 32.5892V20.8387C57.6129 18.8115 55.9627 17.1613 53.9355 17.1613H42.185L37.2818 12.2581H56.3871C59.7664 12.2581 62.5161 15.0077 62.5161 18.3871ZM55.1613 30.1376L44.6366 19.6129H53.9355C54.6118 19.6129 55.1613 20.1636 55.1613 20.8387V30.1376ZM15.9355 2.45161H30.6452V4.90323H15.9355V2.45161ZM18.3871 7.35484H28.1935V9.80645H19.6129C19.1963 9.80645 18.7893 9.84715 18.3871 9.90461V7.35484ZM56.3871 73.5484H19.6129C16.2336 73.5484 13.4839 70.7987 13.4839 67.4194V18.3871C13.4839 15.0077 16.2336 12.2581 19.6129 12.2581H33.815L62.5161 40.9592V67.4194C62.5161 70.7987 59.7664 73.5484 56.3871 73.5484Z" fill="white"/>
<path d="M32.7377 15.0688C32.5084 14.8384 32.1972 14.7097 31.871 14.7097H20.8387C18.1345 14.7097 15.9355 16.9087 15.9355 19.6129V66.1936C15.9355 68.8978 18.1345 71.0968 20.8387 71.0968H55.1613C57.8655 71.0968 60.0645 68.8978 60.0645 66.1936V42.9033C60.0645 42.5771 59.9358 42.2658 59.7054 42.0366L32.7377 15.0688ZM57.6129 66.1936C57.6129 67.5457 56.5134 68.6452 55.1613 68.6452H20.8387C19.4866 68.6452 18.3871 67.5457 18.3871 66.1936V19.6129C18.3871 18.2608 19.4866 17.1613 20.8387 17.1613H31.3634L57.6129 43.4108V66.1936Z" fill="white"/>
<path d="M28.1935 54.8524C28.1935 59.3779 31.437 63.1744 35.7369 63.6808C36.0769 63.7197 36.4175 63.7406 36.7544 63.7406C38.8571 63.7406 40.8975 62.9769 42.4729 61.5757C44.3056 59.9477 45.3548 57.6104 45.3548 55.1612V54.8524C45.3548 52.4426 44.7455 50.0521 43.5921 47.9386L37.8504 37.4127C37.4212 36.6245 36.1272 36.6245 35.698 37.4127L29.9562 47.9374C28.8029 50.0521 28.1935 52.4426 28.1935 54.8524ZM32.1086 49.1118L36.7742 40.5605L41.4398 49.1142C42.3969 50.8673 42.9032 52.852 42.9032 54.8524V55.1612C42.9032 56.9101 42.1533 58.58 40.8436 59.743C39.5185 60.9215 37.8037 61.4542 36.0242 61.2459C33.0088 60.8904 30.6452 58.0821 30.6452 54.8524C30.6452 52.852 31.1515 50.8673 32.1086 49.1118V49.1118Z" fill="white"/>
<path d="M41.6774 55.1614H39.2258C39.2258 56.5135 38.1263 57.613 36.7742 57.613V60.0646C39.4784 60.0646 41.6774 57.8656 41.6774 55.1614Z" fill="white"/>
</svg>
