<svg width="76" height="76" viewBox="0 0 76 76" fill="none" xmlns="http://www.w3.org/2000/svg">
<path d="M64.9677 31.871H41.6774V29.4194H43.5969L49.6673 19.3017C50.8548 17.3217 51.4839 15.0538 51.4839 12.7447C51.4839 5.71724 45.7666 0 38.7392 0H37.262C30.2334 0 24.5161 5.71724 24.5161 12.7447C24.5161 15.0538 25.1452 17.3217 26.3315 19.3029L32.4031 29.4194H34.3226V31.871H11.0323C9.00501 31.871 7.35484 33.5211 7.35484 35.5484V72.3226C7.35484 74.3498 9.00501 76 11.0323 76H64.9677C66.995 76 68.6452 74.3498 68.6452 72.3226V35.5484C68.6452 33.5211 66.995 31.871 64.9677 31.871ZM44.129 73.5484H39.2258V61.2903H46.5806V53.9355H51.4839V44.129H41.6774V39.2258H61.2903V51.4839H56.3871V58.8387H51.4839V66.1935H44.129V73.5484ZM49.0323 12.7447C49.0323 13.5671 48.9167 14.3787 48.7246 15.1706C44.5253 13.5437 41.6774 9.47905 41.6774 4.90323V2.88436C45.9246 4.15326 49.0323 8.09044 49.0323 12.7447ZM34.3226 2.88436V4.90323C34.3226 9.47905 31.4747 13.5437 27.2754 15.1706C27.0833 14.3787 26.9677 13.5671 26.9677 12.7447C26.9677 8.09044 30.0754 4.15326 34.3226 2.88436ZM28.4336 18.0411C28.3222 17.855 28.239 17.6563 28.1397 17.4653C33.2853 15.4794 36.7742 10.5049 36.7742 4.90323V2.47615C36.937 2.46897 37.0968 2.45161 37.2608 2.45161H38.738C38.9032 2.45161 39.063 2.46897 39.2258 2.47615V4.90323C39.2258 10.5049 42.7147 15.4794 47.8603 17.4642C47.761 17.6551 47.6778 17.8538 47.5664 18.0399L42.2095 26.9677H33.7917L28.4336 18.0411ZM39.2258 29.4194V44.129H36.7742V29.4194H39.2258ZM34.3226 44.129H29.4194V39.2258H34.3226V44.129ZM9.80646 72.3226V35.5484C9.80646 34.8732 10.3559 34.3226 11.0323 34.3226H34.3226V36.7742H26.9677V46.5806H49.0323V51.4839H44.129V58.8387H36.7742V73.5484H11.0323C10.3559 73.5484 9.80646 72.9989 9.80646 72.3226ZM66.1935 72.3226C66.1935 72.9989 65.6441 73.5484 64.9677 73.5484H46.5806V68.6452H53.9355V61.2903H58.8387V53.9355H63.7419V36.7742H41.6774V34.3226H64.9677C65.6441 34.3226 66.1935 34.8732 66.1935 35.5484V72.3226Z" fill="white"/>
<path d="M12.2581 46.5806H24.5161V36.7742H12.2581V46.5806ZM14.7097 39.2258H22.0645V44.129H14.7097V39.2258Z" fill="white"/>
<path d="M12.2581 71.0967H22.0645V49.0322H12.2581V71.0967ZM14.7097 68.6451V66.1935H19.6129V68.6451H14.7097ZM19.6129 61.2903V63.7419H14.7097V61.2903H19.6129ZM14.7097 58.8387V56.3871H19.6129V58.8387H14.7097ZM19.6129 51.4838V53.9355H14.7097V51.4838H19.6129Z" fill="white"/>
</svg>
