<svg width="76" height="76" viewBox="0 0 76 76" fill="none" xmlns="http://www.w3.org/2000/svg">
<path d="M45.1428 43.1379L45.556 40.7986L50.2348 41.6251L49.8216 43.9644L45.1428 43.1379Z" fill="white"/>
<path d="M61.8911 61.662L63.1083 61.2191L62.2961 58.9878L61.0836 59.4295C60.8622 59.04 60.6046 58.6722 60.3141 58.3311L61.1454 57.3419L59.3238 55.8124L58.4925 56.8051C58.1072 56.5784 57.7012 56.3887 57.2801 56.2387L57.5045 54.9633L55.1663 54.5513L54.9419 55.8243C54.4938 55.822 54.0466 55.8618 53.6059 55.943L53.1654 54.7306L50.9341 55.5416L51.3734 56.7529C51.1795 56.8621 50.9899 56.9809 50.8046 57.1091C50.6206 57.2386 50.4686 57.3989 50.2988 57.5426L49.2882 56.6935L47.7611 58.5116L48.7598 59.3511C48.5332 59.736 48.3439 60.1416 48.1945 60.5624L46.9061 60.3332L46.4928 62.6726L47.7694 62.897C47.7668 63.3443 47.8066 63.7908 47.8881 64.2306L46.6721 64.6735L47.4832 66.9048L48.6956 66.4631C48.9177 66.8525 49.1753 67.2207 49.4651 67.5627L48.6339 68.5507L50.4519 70.0778L51.2832 69.0851C51.6685 69.3118 52.0745 69.5015 52.4956 69.6515L52.2712 70.9269L54.6094 71.3378L54.8409 70.0624C54.8623 70.0624 54.8837 70.0683 54.9051 70.0683C55.3316 70.0642 55.7568 70.0217 56.1757 69.9413L56.6186 71.1585L58.8499 70.3474L58.4034 69.1195C58.5958 69.0091 58.7929 68.907 58.9782 68.7775C59.1634 68.6481 59.3143 68.489 59.4841 68.3453L60.4958 69.1943L62.0218 67.3751L61.0231 66.5355C61.2489 66.1517 61.4377 65.7473 61.5871 65.3278L62.8708 65.5546L63.2841 63.2153L62.0087 62.9908C62.0119 62.5452 61.9726 62.1002 61.8911 61.662V61.662ZM54.8849 58.1945C55.1636 58.1951 55.4417 58.2197 55.7161 58.2681C56.9135 58.4821 57.9822 59.1498 58.6996 60.1322C59.4169 61.1145 59.7275 62.3358 59.5667 63.5415C59.4059 64.7472 58.7861 65.8444 57.8364 66.6044C56.8868 67.3645 55.6804 67.7288 54.4688 67.6215C53.2572 67.5142 52.1337 66.9435 51.3324 66.0283C50.531 65.1132 50.1137 63.9242 50.1674 62.709C50.221 61.4938 50.7414 60.3461 51.6203 59.5051C52.4991 58.6641 53.6685 58.1947 54.8849 58.1945Z" fill="white"/>
<path d="M53.5383 63.9084L53.9515 61.5691L56.2909 61.9823L55.8776 64.3217L53.5383 63.9084Z" fill="white"/>
<path d="M71.6063 43.0433C70.9825 42.1469 70.1871 41.3832 69.2662 40.7964C68.3453 40.2096 67.3171 39.8112 66.2411 39.6245L62.1882 38.912L54.8625 22.2157C54.4705 21.3202 53.8631 20.5356 53.0945 19.9316C52.3258 19.3277 51.4197 18.9232 50.4569 18.7542L20.2136 13.4187C18.6633 13.1476 17.0688 13.5023 15.7795 14.4049C14.4902 15.3075 13.6114 16.6845 13.3356 18.234L8.1819 47.475C8.10054 47.9358 8.11074 48.408 8.21191 48.8648C8.31309 49.3216 8.50325 49.754 8.77154 50.1373C9.03983 50.5206 9.38099 50.8473 9.77555 51.0988C10.1701 51.3502 10.6103 51.5215 11.0711 51.6028L12.0531 51.775C12.2806 51.8149 12.5147 51.7876 12.7269 51.6965C12.9391 51.6054 13.1201 51.4544 13.2478 51.262C14.3969 49.5298 16.0265 48.1706 17.9369 47.351C19.8472 46.5314 21.9552 46.2871 24.0023 46.6481C26.0494 47.009 27.9468 47.9595 29.4616 49.383C30.9764 50.8064 32.043 52.641 32.5304 54.6618C32.5848 54.8866 32.7037 55.0907 32.8724 55.2489C33.0412 55.4072 33.2525 55.5126 33.4804 55.5524L37.6925 56.2958L34.5373 63.6583C34.4739 63.8061 34.4412 63.9653 34.4412 64.1262C34.4412 64.287 34.4739 64.4462 34.5373 64.594L37.3873 71.25H32.0625V73.625H46.3125V71.25H40.9878L43.8378 64.5929C43.9011 64.445 43.9338 64.2858 43.9338 64.125C43.9338 63.9641 43.9011 63.8049 43.8378 63.6571L40.9272 56.867L44.7949 57.5486C45.0224 57.5899 45.257 57.5633 45.4695 57.472C45.6819 57.3808 45.8628 57.229 45.9895 57.0356C47.1385 55.3033 48.768 53.9439 50.6783 53.1243C52.5885 52.3046 54.6965 52.0603 56.7436 52.4213C58.7907 52.7822 60.688 53.7328 62.2027 55.1563C63.7175 56.5799 64.7838 58.4146 65.271 60.4354C65.3251 60.6605 65.4439 60.8648 65.6127 61.0233C65.7815 61.1817 65.9929 61.2874 66.221 61.3272L67.203 61.5006C67.4078 61.5359 67.6151 61.5538 67.8229 61.554C68.6601 61.5536 69.4705 61.2584 70.1118 60.7201C70.753 60.1817 71.1842 59.4348 71.3296 58.6102L72.979 49.2551C73.1725 48.1804 73.1508 47.0779 72.9151 46.0116C72.6795 44.9453 72.2346 43.9364 71.6063 43.0433V43.0433ZM37.4253 62.9375L39.1875 58.8275L40.9498 62.9375H37.4253ZM40.9498 65.3125L39.1875 69.4224L37.4253 65.3125H40.9498ZM52.6858 23.1705L59.375 38.4144L44.0183 35.7069L46.6985 20.5069L50.0436 21.1007C50.6206 21.2011 51.1637 21.4427 51.6247 21.8038C52.0856 22.1649 52.4502 22.6344 52.6858 23.1705V23.1705ZM15.675 18.6508C15.7562 18.19 15.9273 17.7496 16.1787 17.3549C16.4301 16.9603 16.7568 16.619 17.1401 16.3505C17.5234 16.0821 17.9559 15.8919 18.4127 15.7906C18.8696 15.6894 19.3419 15.6791 19.8028 15.7605L44.3626 20.0913L41.6813 35.2948L13.6123 30.3453L15.675 18.6508ZM12.375 37.3623L13.5446 37.5689L13.1338 39.9071L11.9629 39.7005L12.375 37.3623ZM11.7242 49.3062L11.4867 49.2634C11.1775 49.2069 10.903 49.031 10.7225 48.7736C10.5421 48.5163 10.4702 48.1982 10.5225 47.8883L10.7291 46.7186L13.7133 47.2435C12.9761 47.8555 12.309 48.5473 11.7242 49.3062V49.3062ZM24.415 44.308C22.6616 44.0002 20.8637 44.0544 19.132 44.4671C17.4002 44.8798 15.7712 45.6424 14.345 46.7079L14.6466 44.9979L11.1376 44.3792L11.5508 42.0398L12.7193 42.2465C12.8574 42.27 12.9972 42.2819 13.1373 42.2821C13.695 42.2811 14.2346 42.0838 14.6614 41.7249C15.0883 41.366 15.3752 40.8684 15.472 40.3192L15.8828 37.9822C15.9372 37.675 15.9305 37.3602 15.8632 37.0556C15.7959 36.7511 15.6692 36.4628 15.4905 36.2072C15.3117 35.9515 15.0844 35.7337 14.8214 35.5659C14.5585 35.3982 14.265 35.2839 13.9579 35.2295L12.787 35.0229L13.2003 32.6847L41.268 37.6342L38.3812 54.0063L34.6299 53.3437C33.9248 51.0428 32.5978 48.9814 30.7952 47.3869C28.9927 45.7925 26.7848 44.727 24.415 44.308V44.308ZM57.1603 50.0816C54.7898 49.6634 52.3498 49.9089 50.1101 50.791C47.8704 51.6731 45.9182 53.1574 44.4695 55.0798L40.7194 54.4184L43.6062 38.0463L65.8267 41.965C66.5951 42.0984 67.3295 42.3829 67.9873 42.802C68.645 43.2211 69.2132 43.7664 69.6588 44.4065C69.8096 44.6365 69.9445 44.8765 70.0625 45.125L66.582 44.511C65.9627 44.4018 65.3255 44.5427 64.8099 44.9026C64.2943 45.2626 63.9426 45.8123 63.8317 46.4312L63.4185 48.7694C63.309 49.3897 63.4505 50.028 63.8117 50.544C64.1729 51.06 64.7243 51.4114 65.3446 51.5209L70.0233 52.3521L69.6113 54.6903L66.1034 54.0716L65.8018 55.7816C64.8266 54.2921 63.5568 53.018 62.0707 52.0377C60.5845 51.0574 58.9135 50.3917 57.1603 50.0816V50.0816ZM70.642 48.8419L70.4366 50.0115L65.7578 49.1803L66.1711 46.8421L70.7299 47.646C70.7405 48.0466 70.7111 48.4472 70.642 48.8419V48.8419ZM67.6163 59.1612L67.3788 59.1185C67.0904 58.2074 66.7017 57.3312 66.2198 56.506L69.204 57.032L68.9985 58.2005C68.9712 58.3545 68.9137 58.5016 68.8293 58.6334C68.745 58.7651 68.6355 58.8788 68.507 58.9681C68.3786 59.0574 68.2338 59.1204 68.0809 59.1535C67.9281 59.1867 67.7701 59.1893 67.6163 59.1612V59.1612Z" fill="white"/>
<path d="M20.1875 61.75H5.9375C4.99267 61.75 4.08653 62.1253 3.41843 62.7934C2.75033 63.4615 2.375 64.3677 2.375 65.3125V70.0625C2.375 71.0073 2.75033 71.9135 3.41843 72.5816C4.08653 73.2497 4.99267 73.625 5.9375 73.625H20.1875C21.1323 73.625 22.0385 73.2497 22.7066 72.5816C23.3747 71.9135 23.75 71.0073 23.75 70.0625V65.3125C23.75 64.3677 23.3747 63.4615 22.7066 62.7934C22.0385 62.1253 21.1323 61.75 20.1875 61.75ZM17.7412 67.8252L16.8863 71.25H14.5825L15.4019 67.9761C15.471 67.7011 15.4394 67.4104 15.3128 67.1567L13.7964 64.125H15.8911L17.7412 67.8252ZM10.5687 67.1567L9.04638 64.125H11.1411L12.9912 67.8252L12.1363 71.25H9.8325L10.6519 67.9761C10.7228 67.7018 10.6933 67.4112 10.5687 67.1567V67.1567ZM4.75 70.0625V65.3125C4.75 64.9976 4.87511 64.6955 5.09781 64.4728C5.32051 64.2501 5.62256 64.125 5.9375 64.125H6.39112L8.24125 67.8252L7.38625 71.25H5.9375C5.62256 71.25 5.32051 71.1249 5.09781 70.9022C4.87511 70.6795 4.75 70.3774 4.75 70.0625ZM21.375 70.0625C21.375 70.3774 21.2499 70.6795 21.0272 70.9022C20.8045 71.1249 20.5024 71.25 20.1875 71.25H19.3325L20.1519 67.9761C20.221 67.7011 20.1894 67.4104 20.0628 67.1567L18.5464 64.125H20.1875C20.5024 64.125 20.8045 64.2501 21.0272 64.4728C21.2499 64.6955 21.375 64.9976 21.375 65.3125V70.0625Z" fill="white"/>
<path d="M10.6875 54.625H13.0625V59.375H10.6875V54.625Z" fill="white"/>
<path d="M15.4711 59.115L16.6608 54.3658L18.9634 54.9426L17.7737 59.6918L15.4711 59.115Z" fill="white"/>
<path d="M4.81048 54.9021L7.11308 54.3253L8.30283 59.0744L6.00023 59.6513L4.81048 54.9021Z" fill="white"/>
</svg>
