<svg width="76" height="76" viewBox="0 0 76 76" fill="none" xmlns="http://www.w3.org/2000/svg">
<g clip-path="url(#clip0_49_186)">
<path d="M17.1672 56.3892H19.6186V58.8405H17.1672V56.3892Z" fill="white"/>
<path d="M71.0004 9.1905L48.7381 0.280921C46.574 -0.52224 44.3028 0.560411 43.5098 2.55455L41.9543 6.4339C41.773 6.92166 41.6808 7.41421 41.6808 7.90078C41.6808 8.70873 41.9334 9.49214 42.3769 10.1541L38.7932 18.3927H37.2096L33.6283 10.1576C34.0742 9.49453 34.3267 8.70992 34.3267 7.90078C34.3267 7.41541 34.2345 6.92166 34.0424 6.40218L32.4995 2.55694C31.7036 0.55682 29.5341 -0.565929 27.2401 0.290496L5.00953 9.18931C3.46006 9.80454 2.4588 11.2816 2.4588 12.9508C2.4588 13.4361 2.55097 13.9299 2.74308 14.45L4.28656 18.2946C4.86829 19.7585 6.22025 20.7202 7.77451 20.8244L18.9751 46.5836H15.9414C13.9143 46.5836 12.2643 48.2336 12.2643 50.2606C12.2643 51.2547 12.6527 52.1788 13.3356 52.8443C13.5636 53.0789 13.8246 53.2626 14.0993 53.4242C12.9915 54.5679 12.3014 56.121 12.3014 57.8356C12.3014 58.3108 12.3517 58.7633 12.4528 59.2157L16.1844 76.0001H54.9049L60.2254 53.8252C65.0168 53.1705 68.646 49.084 68.646 44.1322C68.646 39.9321 65.9654 36.255 62.1166 34.8982L68.233 20.8244C69.7873 20.7202 71.1405 19.7585 71.7216 18.2982L73.2764 14.4194C73.4566 13.9299 73.5488 13.4373 73.5488 12.9508C73.5488 11.2816 72.5475 9.80454 71.0004 9.1905V9.1905ZM42.3673 16.3262L46.1078 17.9038L47.0606 15.6451L43.3452 14.0771L44.3728 11.7179L65.7912 20.2899L64.5991 23.0346L49.3378 16.6117L48.388 18.8721L63.6218 25.2825L62.4182 28.051L47.7919 21.898C47.7004 19.9518 46.1006 18.3927 44.1322 18.3927H41.4678L42.3673 16.3262ZM29.4473 48.6047C30.8178 46.5716 33.0998 45.3579 35.5524 45.3579C38.005 45.3579 40.2876 46.5716 41.6575 48.6047C42.475 49.8148 42.9065 51.235 42.9065 52.712C42.9065 54.1891 42.475 55.6099 41.6575 56.8194C40.2876 58.853 38.005 60.0662 35.5524 60.0662C31.4965 60.0662 28.1983 56.7679 28.1983 52.712C28.1983 51.235 28.6298 49.8148 29.4473 48.6047V48.6047ZM31.8753 42.9065C30.4402 42.9065 29.1702 42.1016 28.5562 40.7945C28.5035 40.6856 28.479 40.5683 28.4371 40.4551H42.6785C42.1746 41.8855 40.828 42.9065 39.2307 42.9065H31.8753ZM18.8757 40.2074L23.5948 38.2258C24.0101 39.1917 24.8348 39.9309 25.8438 40.2594C25.8672 40.3929 25.8893 40.5276 25.921 40.6586L20.1331 43.0992L18.8757 40.2074ZM44.1322 20.8441C44.8079 20.8441 45.3579 21.3947 45.3579 22.0698V28.1983H34.3267C32.2997 28.1983 30.6496 29.8483 30.6496 31.8753C30.6496 32.8694 31.0381 33.7934 31.7209 34.459C32.4086 35.164 33.3326 35.5524 34.3267 35.5524H45.3579V36.7781C45.3579 37.4538 44.8079 38.0038 44.1322 38.0038H26.9726C26.2975 38.0038 25.7469 37.4538 25.7469 36.7781V30.576C25.7469 30.0027 25.878 29.4413 26.1317 28.9422L29.1582 22.8778C29.7806 21.6419 31.074 20.8441 32.4517 20.8441H44.1322ZM49.3552 46.5836H43.1908C42.6887 45.9576 42.1183 45.4034 41.4911 44.9252C43.1711 44.2633 44.4656 42.882 45.0246 41.1883L49.117 42.9101C49.0643 43.3135 49.035 43.7193 49.035 44.1322C49.035 44.9707 49.1505 45.7882 49.3552 46.5836V46.5836ZM45.3579 33.101H34.3267C33.9993 33.101 33.6977 32.9759 33.4541 32.7264C33.2261 32.5043 33.101 32.2027 33.101 31.8753C33.101 31.2002 33.6516 30.6496 34.3267 30.6496H45.3579V33.101ZM23.9437 27.8392C23.6217 28.473 23.4158 29.1726 23.3362 29.8926L15.772 33.0693L14.5685 30.3007L24.8827 25.9575L23.9437 27.8392ZM23.2955 32.5678V35.6948L17.899 37.9613L16.7493 35.3172L23.2955 32.5678ZM44.62 49.035H50.3672C50.9298 50.0021 51.6455 50.8639 52.4942 51.5809L50.6443 56.3891H44.62C45.091 55.2286 45.3579 53.9904 45.3579 52.712C45.3579 51.4337 45.091 50.196 44.62 49.035ZM49.7484 40.5168L46.8104 39.2809C47.4257 38.6226 47.8093 37.7464 47.8093 36.7781V36.2843L51.3894 37.7943C50.6982 38.6058 50.1416 39.5227 49.7484 40.5168ZM53.4326 35.9953L47.8093 33.6235V30.4976L57.2216 34.459C55.8547 34.6834 54.5823 35.2226 53.4326 35.9953ZM60.2379 33.0693L47.8093 27.838V24.5655L61.4415 30.3019L60.2379 33.0693ZM32.4517 18.3927C30.1559 18.3927 28.0032 19.7202 26.9654 21.7831L26.5632 22.5899L13.5905 28.051L12.387 25.2837L33.6414 16.3262L34.541 18.3927H32.4517ZM6.56258 17.3843L5.03047 13.566C4.95207 13.3553 4.91018 13.1423 4.91018 12.9508C4.91018 12.2912 5.30518 11.7089 5.91802 11.4653L28.1223 2.57909C29.0613 2.23077 29.9093 2.67604 30.2229 3.46783L31.755 7.28554C31.8334 7.4962 31.8753 7.70986 31.8753 7.90078C31.8753 8.34605 31.6964 8.7602 31.363 9.07141C31.2284 9.20008 31.0506 9.31319 30.8705 9.38621L27.7326 10.6364L28.6393 12.9131L31.6377 11.7191L32.6695 14.0921L11.4091 23.037L10.2163 20.2929L26.2017 13.8934L25.2908 11.6185L8.64829 18.279C8.55194 18.3167 8.4478 18.3449 8.40112 18.3562C7.62908 18.4628 6.84926 18.1061 6.56258 17.3843ZM21.1105 45.3483L26.9702 42.8772C27.6519 43.8048 28.5657 44.5063 29.6191 44.9204C28.9901 45.3998 28.4179 45.9552 27.914 46.5836H21.6473L21.1105 45.3483ZM52.9706 73.5487H18.1504L14.8444 58.6813C14.7821 58.4042 14.751 58.1271 14.751 57.8356C14.751 55.6871 16.5004 53.9377 18.6489 53.9377C20.2301 53.9377 21.6419 54.8779 22.2488 56.334L27.3807 68.646H34.5523C35.0598 70.0692 36.4082 71.0974 38.0038 71.0974C40.0308 71.0974 41.6808 69.4479 41.6808 67.4203C41.6808 67.2683 41.6539 67.1228 41.6354 66.9756L45.9061 64.8402L44.8091 62.6474L40.5485 64.778C39.8878 64.1406 38.9931 63.7432 38.0038 63.7432C36.4082 63.7432 35.0598 64.7714 34.5523 66.1946H29.0146L24.5128 55.3902C23.5247 53.0184 21.2242 51.4863 18.6501 51.4863H15.9414C15.614 51.4863 15.3124 51.3613 15.0688 51.1117C14.8408 50.8897 14.7157 50.588 14.7157 50.2606C14.7157 49.5856 15.2663 49.035 15.9414 49.035H26.4848C26.0144 50.196 25.7469 51.4337 25.7469 52.712C25.7469 58.1187 30.1457 62.5175 35.5524 62.5175C38.5454 62.5175 41.3379 61.15 43.1908 58.8405H52.3284L58.2181 43.5241C58.3635 43.1495 58.7142 42.9065 59.1104 42.9065C59.6371 42.9065 60.0662 43.3356 60.0662 43.8749C60.0662 43.9191 60.0614 43.9952 60.0392 44.0909L52.9706 73.5487ZM36.7781 67.4203C36.7781 66.7452 37.3287 66.1946 38.0038 66.1946C38.6795 66.1946 39.2295 66.7452 39.2295 67.4203C39.2295 68.096 38.6795 68.646 38.0038 68.646C37.3287 68.646 36.7781 68.096 36.7781 67.4203ZM66.1946 44.1322C66.1946 47.5017 63.9527 50.3319 60.8556 51.1937L62.4254 44.6505C62.487 44.3836 62.5176 44.1226 62.5176 43.8629C62.5176 41.9837 60.989 40.4551 59.1104 40.4551C57.698 40.4551 56.4519 41.3098 55.9307 42.6384L53.444 49.1074C52.9413 48.5669 52.511 47.9589 52.1902 47.2862C51.7228 46.2969 51.4864 45.2352 51.4864 44.1322C51.4864 43.5511 51.5552 42.9885 51.6982 42.4044C52.0806 40.7933 53.0065 39.3521 54.3178 38.3407C55.6111 37.3185 57.1749 36.7781 58.8405 36.7781C59.3396 36.7781 59.7903 36.8224 60.2403 36.9157C63.6906 37.577 66.1946 40.6131 66.1946 44.1322V44.1322ZM70.9896 13.5367L69.4438 17.3891C69.2014 17.9983 68.6191 18.3927 67.9595 18.3927C67.8446 18.3927 67.7207 18.3718 67.6717 18.367C67.5604 18.3449 67.4556 18.3155 67.3736 18.285L45.146 9.3892C44.9581 9.31319 44.7804 9.20008 44.6445 9.07141L44.6385 9.06542C44.3112 8.7602 44.1322 8.34605 44.1322 7.90078C44.1322 7.70986 44.1741 7.4962 44.2399 7.31486L45.7858 3.46304C46.0282 2.85379 46.6105 2.45879 47.2701 2.45879C47.461 2.45879 47.6746 2.50069 47.8572 2.56652L70.0937 11.4665C70.703 11.7089 71.0974 12.2912 71.0974 12.9508C71.0974 13.1423 71.0555 13.3553 70.9896 13.5367Z" fill="white"/>
<path d="M38.0034 52.7118C38.0034 53.0697 37.9226 53.4145 37.7544 53.7676L39.9694 54.8191C40.292 54.1398 40.4548 53.4312 40.4548 52.7118C40.4548 50.0079 38.2559 47.8091 35.552 47.8091C34.8326 47.8091 34.124 47.9725 33.4453 48.2944L34.4969 50.5094C36.1834 49.7063 38.0034 51.002 38.0034 52.7118Z" fill="white"/>
<path d="M35.5521 57.6146C36.2715 57.6146 36.9801 57.4518 37.6594 57.1293L36.6072 54.9143C34.9207 55.7162 33.1007 54.4205 33.1007 52.7119C33.1007 52.354 33.1815 52.0099 33.3497 51.6568L31.1347 50.6052C30.8121 51.2839 30.6494 51.9925 30.6494 52.7119C30.6494 55.4158 32.8482 57.6146 35.5521 57.6146Z" fill="white"/>
<path d="M40.4548 23.2952H42.9062V25.7465H40.4548V23.2952Z" fill="white"/>
<path d="M35.5524 23.2952H38.0038V25.7465H35.5524V23.2952Z" fill="white"/>
<path d="M30.6494 23.2952H33.1007V25.7465H30.6494V23.2952Z" fill="white"/>
</g>
<defs>
<clipPath id="clip0_49_186">
<rect width="76" height="76" fill="white"/>
</clipPath>
</defs>
</svg>
